<svg width="24" height="24" viewBox="0 0 24 24" fill="none" xmlns="http://www.w3.org/2000/svg">
<g id="Calendar">
<path id="coolicon" d="M20.4 24H3.60001C2.27453 24 1.20001 22.9255 1.20001 21.6V4.8C1.20001 3.47452 2.27453 2.4 3.60001 2.4H6.00001V0H8.40001V2.4H15.6V0H18V2.4H20.4C21.7255 2.4 22.8 3.47452 22.8 4.8V21.6C22.8 22.9255 21.7255 24 20.4 24ZM3.60001 9.6V21.6H20.4V9.6H3.60001ZM3.60001 4.8V7.2H20.4V4.8H3.60001ZM18 19.2H15.6V16.8H18V19.2ZM13.2 19.2H10.8V16.8H13.2V19.2ZM8.40001 19.2H6.00001V16.8H8.40001V19.2ZM18 14.4H15.6V12H18V14.4ZM13.2 14.4H10.8V12H13.2V14.4ZM8.40001 14.4H6.00001V12H8.40001V14.4Z" fill="var(--icon)
"/>
</g>
</svg>
